# xmcd CD database file
#
# Track frame offsets:
#	150
#	15407
#	31947
#	50650
#	63432
#	86687
#	107454
#	129577
#	150635
#
# Disc length: 2213 seconds
#
# Revision: 0
# Processed by: cddbd v1.5PL3 Copyright (c) Steve Scherf et al.
# Submitted via: CDex 1.51
#
DISCID=6808a309
DTITLE=Eddie Santiago - Interpreta "Los Grandes Exitos de Luis Angel"
DYEAR=2004
DGENRE=Salsa
TTITLE0=Flor Dormida
TTITLE1=Lo Que Son Las Cosas
TTITLE2=Porqué Te Tengo Que Olvidar
TTITLE3=Que Haré Sin Ti
TTITLE4=Lluvia
TTITLE5=Fantasía Herida
TTITLE6=Un Amor Que Termina Así
TTITLE7=Tu Me Quemas
TTITLE8=Nadie Mejor Que Tu
EXTD=YEAR: 2004
EXTT0=
EXTT1=
EXTT2=
EXTT3=
EXTT4=
EXTT5=
EXTT6=
EXTT7=
EXTT8=
PLAYORDER=
